<?xml version="1.0" encoding="utf-8"?>
<!-- Generator: Adobe Illustrator 25.2.1, SVG Export Plug-In . SVG Version: 6.00 Build 0)  -->
<svg version="1.1" id="Layer_1" xmlns="http://www.w3.org/2000/svg" xmlns:xlink="http://www.w3.org/1999/xlink" x="0px" y="0px"
	 viewBox="0 0 252 83.51" style="enable-background:new 0 0 252 83.51;" xml:space="preserve">
<g>
	<path d="M45.82,24.21h-9.4v15.25h-3.05V24.21h-9.4v-2.54h21.85V24.21z"/>
	<path d="M67.47,31.83c-0.78,1.03-1.86,1.74-3.25,2.13l3.4,5.49h-3.56l-3.2-5.18h-9.96v5.18h-3.05V21.67h13.97
		c1.35,0,2.54,0.25,3.57,0.75c1.03,0.5,1.82,1.22,2.39,2.17s0.85,2.08,0.85,3.38C68.64,29.51,68.25,30.8,67.47,31.83z M50.91,31.73
		h9.66c0.95,0,1.76-0.06,2.44-0.19c0.68-0.13,1.28-0.47,1.8-1.02c0.52-0.55,0.79-1.4,0.79-2.55c0-1.15-0.26-2-0.79-2.55
		c-0.53-0.55-1.13-0.89-1.8-1.02c-0.68-0.13-1.49-0.19-2.44-0.19h-9.66V31.73z"/>
	<path d="M87.54,35.24H74.79l-2.52,4.22h-3.38l10.54-17.79h3.46l10.54,17.79h-3.38L87.54,35.24z M86.04,32.69l-4.88-8.23l-4.88,8.23
		H86.04z"/>
	<path d="M96.49,33.43c0,0.92,0.28,1.64,0.83,2.17c0.55,0.53,1.48,0.93,2.79,1.18c1.31,0.25,3.13,0.38,5.45,0.38
		c1.83,0,3.29-0.09,4.38-0.27c1.09-0.18,1.89-0.47,2.4-0.86c0.51-0.4,0.76-0.92,0.76-1.56c0-0.69-0.21-1.21-0.64-1.55
		c-0.42-0.34-1.19-0.59-2.3-0.75c-1.11-0.16-2.9-0.32-5.37-0.47c-2.63-0.15-4.69-0.41-6.2-0.77s-2.62-0.92-3.33-1.65
		c-0.71-0.74-1.07-1.75-1.07-3.04c0-1.25,0.42-2.24,1.25-2.95s2-1.2,3.52-1.47c1.52-0.27,3.42-0.41,5.7-0.41
		c7.15,0,10.72,1.99,10.72,5.97h-3.05c0-0.9-0.27-1.6-0.81-2.1c-0.54-0.5-1.39-0.85-2.55-1.04c-1.16-0.19-2.77-0.29-4.82-0.29
		c-1.85,0-3.26,0.08-4.24,0.24c-0.98,0.16-1.67,0.42-2.07,0.76c-0.4,0.35-0.6,0.83-0.6,1.44c0,0.64,0.2,1.14,0.61,1.47
		c0.41,0.34,1.13,0.61,2.17,0.8c1.04,0.2,2.63,0.36,4.76,0.5c2.9,0.19,5.08,0.4,6.54,0.65c1.46,0.25,2.63,0.71,3.51,1.4
		c0.87,0.69,1.31,1.72,1.31,3.11c0,1.47-0.46,2.6-1.38,3.39c-0.92,0.79-2.16,1.32-3.72,1.59s-3.47,0.41-5.74,0.41
		c-2.61,0-4.77-0.18-6.49-0.55c-1.72-0.36-3.05-1-3.98-1.92c-0.93-0.92-1.4-2.19-1.4-3.81H96.49z"/>
	<path d="M142.07,21.67v17.79h-3.05v-7.62h-17.53v7.62h-3.05V21.67h3.05v7.62h17.53v-7.62H142.07z"/>
	<path d="M147.91,24.21v5.08h15.75v2.54h-15.75v5.08h15.75v2.54h-18.8V21.67h18.8v2.54H147.91z"/>
	<path d="M183.13,22.66c1.34,0.66,2.4,1.66,3.19,2.99c0.79,1.33,1.18,2.97,1.18,4.92c0,1.95-0.39,3.59-1.18,4.92
		c-0.79,1.33-1.85,2.33-3.19,2.99c-1.34,0.66-2.83,0.99-4.47,0.99h-12.7V21.67h12.7C180.3,21.67,181.79,22,183.13,22.66z
		 M181.33,36.37c1.05-0.36,1.83-1,2.35-1.92c0.52-0.92,0.77-2.21,0.77-3.89c0-1.68-0.26-2.97-0.77-3.89
		c-0.52-0.92-1.3-1.55-2.35-1.92c-1.05-0.36-2.45-0.55-4.19-0.55H169v12.7h8.13C178.88,36.91,180.28,36.73,181.33,36.37z"/>
	<path d="M226.25,39.45c-0.41-0.2-1.74-0.83-3.99-1.88l-0.99-0.46c-2.9,1.73-6.16,2.59-9.78,2.59c-3.01,0-5.18-0.45-6.5-1.36
		c-1.32-0.91-1.98-2.17-1.98-3.8c0-1.42,0.48-2.54,1.44-3.34c0.96-0.8,2.19-1.37,3.7-1.69c-0.83-1.03-1.25-2.21-1.25-3.53
		c0-1.46,0.64-2.58,1.93-3.38c1.29-0.8,3.13-1.19,5.54-1.19c1.34,0,2.57,0.18,3.7,0.53c1.13,0.36,2.02,0.86,2.68,1.51
		c0.66,0.65,0.99,1.41,0.99,2.27c0,1.34-0.61,2.4-1.82,3.19s-3.04,1.43-5.48,1.92c1.42,0.78,3.51,1.8,6.28,3.07
		c1.44-1.05,2.72-2.28,3.84-3.68l2.74,1.02c-1.03,1.58-2.2,2.92-3.51,4.04l3.99,1.7L226.25,39.45z M217.99,35.57
		c-1.88-0.9-3.4-1.65-4.56-2.26c-1.16-0.61-2.15-1.19-2.96-1.75c-1.32,0.25-2.39,0.6-3.2,1.04c-0.81,0.44-1.22,1.03-1.22,1.78
		c0,1.86,1.81,2.79,5.44,2.79C213.65,37.17,215.82,36.63,217.99,35.57z M211.12,24.51c-0.79,0.37-1.18,0.95-1.18,1.73
		c0,0.88,0.53,1.77,1.6,2.67c2.19-0.41,3.92-0.86,5.21-1.35s1.93-1.1,1.93-1.83c0-0.56-0.39-0.99-1.17-1.31
		c-0.78-0.31-1.83-0.47-3.15-0.47C212.99,23.95,211.91,24.14,211.12,24.51z"/>
	<path d="M46.9,44.05v17.79h-3.05v-7.62H26.32v7.62h-3.05V44.05h3.05v7.62h17.53v-7.62H46.9z"/>
	<path d="M69.37,59.85c-1.8,1.5-4.62,2.25-8.49,2.25c-3.88,0-6.71-0.75-8.5-2.24c-1.79-1.49-2.68-3.8-2.68-6.94v-8.87h3.05v8.87
		c0,1.22,0.18,2.3,0.55,3.25c0.36,0.95,1.14,1.75,2.34,2.4c1.19,0.65,2.94,0.98,5.25,0.98s4.05-0.33,5.25-0.98s1.97-1.45,2.34-2.4
		c0.36-0.95,0.55-2.03,0.55-3.25v-8.87h3.05v8.87C72.06,56.04,71.16,58.35,69.37,59.85z"/>
	<path d="M101.84,61.84h-3.05V47.08l-9.3,14.76h-2.54l-9.3-14.76v14.76H74.6V44.05h4.7l8.92,14.25l8.92-14.25h4.7V61.84z"/>
	<path d="M107.68,61.84h-3.05V44.05h3.05V61.84z"/>
	<path d="M128.77,59.3v2.54h-18.29V44.05h3.05V59.3H128.77z"/>
	<path d="M134.36,61.84h-3.05V44.05h3.05V61.84z"/>
	<path d="M154.53,57.62h-12.75l-2.52,4.22h-3.38l10.54-17.79h3.46l10.54,17.79h-3.38L154.53,57.62z M153.03,55.08l-4.88-8.23
		l-4.88,8.23H153.03z"/>
	<path d="M178.21,46.59h-9.4v15.25h-3.05V46.59h-9.4v-2.54h21.85V46.59z"/>
	<path d="M183.3,46.59v5.08h15.75v2.54H183.3v5.08h15.75v2.54h-18.8V44.05h18.8v2.54H183.3z"/>
	<path d="M218.51,45.04c1.34,0.66,2.4,1.66,3.19,2.99c0.79,1.33,1.18,2.97,1.18,4.92c0,1.95-0.39,3.59-1.18,4.92
		c-0.79,1.33-1.85,2.33-3.19,2.99c-1.34,0.66-2.83,0.99-4.47,0.99h-12.7V44.05h12.7C215.68,44.05,217.17,44.38,218.51,45.04z
		 M216.71,58.75c1.05-0.36,1.83-1,2.35-1.92c0.52-0.91,0.77-2.21,0.77-3.89c0-1.68-0.26-2.97-0.77-3.89
		c-0.52-0.92-1.3-1.55-2.35-1.92c-1.05-0.36-2.45-0.55-4.19-0.55h-8.13v12.7h8.13C214.26,59.3,215.66,59.12,216.71,58.75z"/>
	<path d="M228.73,56.76h-3.05v-12.7h3.05V56.76z M228.73,59.3v2.54h-3.05V59.3H228.73z"/>
</g>
</svg>
