<?xml version="1.0" encoding="utf-8"?>
<!-- Generator: Adobe Illustrator 25.4.1, SVG Export Plug-In . SVG Version: 6.00 Build 0)  -->
<svg version="1.1" id="Layer_1" xmlns="http://www.w3.org/2000/svg" xmlns:xlink="http://www.w3.org/1999/xlink" x="0px" y="0px"
	 viewBox="0 0 216 216" style="enable-background:new 0 0 216 216;" xml:space="preserve">
	 <g>
<path d="M76.08,189.96c0.75-0.44,1.52-0.84,2.24-1.33c1.88-1.25,3.73-2.54,5.59-3.82c2.95-2.02,5.59-4.39,7.86-7.14
	c3.37-4.09,5.31-8.78,5.38-14.14c0.03-2.18-0.01-4.35-0.07-6.53c-0.05-1.79-0.08-1.77-1.83-1.8c-4.03-0.07-8.05-0.1-12.07-0.29
	c-2.23-0.11-4.41-0.66-6.49-1.5c-1.03-0.42-2.05-0.87-3.05-1.34c-0.92-0.43-1.42-1.17-1.24-2.2c0.12-0.71,0.28-1.46,0.61-2.09

	c0.65-1.25,1.4-2.45,2.16-3.63c1.79-2.74,3.24-5.66,4.75-8.54c0.54-1.04,1.15-2.05,1.77-3.04c2.57-4.11,5.16-8.2,7.73-12.31
	c1.45-2.31,2.9-4.63,4.34-6.95c0.12-0.2,0.22-0.4,0.33-0.59c-0.95-0.85-1.85-1.69-2.79-2.49c-1.04-0.89-1.85-1.96-2.58-3.1
	c-1.57-2.45-3.12-4.9-4.76-7.31c-0.66-0.96-1.5-1.8-2.27-2.68c-0.41-0.47-0.85-0.92-0.48-1.63c0.83,0.91,1.64,1.78,2.44,2.69
	c0.31,0.35,0.59,0.74,0.84,1.13c1.53,2.37,3.09,4.72,4.54,7.13c0.99,1.63,2.27,2.98,3.6,4.31c0.52,0.52,1.01,1.06,1.61,1.69
	c4.8-8.07,9.69-15.93,14.19-24.11c-0.46-0.19-0.95-0.4-1.45-0.61c-4.49-1.93-8-4.96-10.32-9.29c-1.1-2.04-1.77-4.23-1.82-6.57
	c-0.11-4.8,0.07-9.59,0.92-14.33c0.68-3.78,1.88-7.4,3.81-10.75c0.76-1.31,1.78-2.4,2.79-3.51c1.4-1.54,2.81-3.07,4.46-4.36
	c2.14-1.66,4.48-2.93,7.11-3.54c0.92-0.21,1.95-0.2,2.89-0.04c2.15,0.35,4.06,1.32,5.73,2.73c1.35,1.14,1.73,2.72,1.84,4.41
	c-0.07-0.19-0.13-0.39-0.2-0.58c-0.07-0.19-0.15-0.39-0.19-0.59c-0.34-1.59-1.29-2.73-2.65-3.57c-1.89-1.17-3.89-1.92-6.15-1.84
	c-1.56,0.06-2.98,0.62-4.36,1.27c-3.2,1.51-5.61,3.97-8.02,6.48c-3.22,3.34-4.84,7.43-5.98,11.8c-0.79,3.03-1.08,6.13-1.25,9.25
	c-0.1,1.85-0.11,3.7-0.17,5.55c-0.16,4.38,1.44,8.09,4.21,11.37c1.73,2.05,3.89,3.54,6.22,4.83c1.81,1,3.75,1.48,5.81,1.58
	c1.78,0.09,3.43-0.43,5.01-1.18c1.4-0.67,2.73-1.47,3.89-2.49c0.13-0.52-0.51-1,0.01-1.57c0.26,0.25,0.5,0.48,0.79,0.75
	c0.17-0.13,0.36-0.23,0.48-0.37c2.79-3.22,5.49-6.5,7.84-10.06c1.16-1.75,2.05-3.64,2.6-5.66c1.16-4.28,2.3-8.57,3.39-12.87
	c0.27-1.07,0.35-2.2,0.47-3.31c0.04-0.37-0.06-0.76-0.16-1.12c-0.32-1.04-0.71-2.06-1-3.1c-0.5-1.78-1.57-3.12-3.05-4.18
	c-0.93-0.67-1.83-1.38-2.52-2.31c-1.14-1.53-2.75-1.75-4.49-1.57c-0.14,0.01-0.27,0.06-0.41,0.09c-0.03-0.05-0.05-0.11-0.08-0.16
	c0.29-0.16,0.55-0.4,0.86-0.46c1.56-0.32,3.02-0.13,4.1,1.16c1.05,1.25,2.29,2.25,3.57,3.25c1.22,0.94,2.01,2.2,2.48,3.66
	c0.38,1.17,0.77,2.34,1.15,3.52c0.29,0.9,0.18,1.82,0.02,2.71c-0.24,1.36-0.53,2.71-0.88,4.05c-0.82,3.19-1.71,6.36-2.53,9.54
	c-0.81,3.18-2.22,6.03-4.11,8.71c-2.14,3.03-4.51,5.86-6.92,8.66c-0.11,0.13-0.23,0.26-0.34,0.39c0.13,0.44,0.26,0.85,0.38,1.26
	c-0.04,0.02-0.08,0.03-0.12,0.05c-0.08-0.17-0.14-0.34-0.23-0.5c-0.08-0.14-0.19-0.26-0.36-0.49c-0.12,0.54,0.09,0.88,0.25,1.18
	c0.71,1.36,1.02,2.82,1.15,4.32c0.14,1.6,0.47,3.12,1.26,4.54c0.92,1.65,1.52,3.43,2.12,5.22c0.28,0.83,0.65,1.64,1.01,2.44
	c0.96,2.14,1.94,4.28,2.92,6.41c0.07,0.16,0.12,0.34,0.22,0.47c0.04,0.05,0.23-0.04,0.32,0c0.05,0.02,0.04,0.18,0.08,0.27
	c0.07,0.15,0.16,0.28,0.29,0.52c0.34-0.4,0.65-0.7,0.9-1.05c1.93-2.71,4.19-5.13,6.44-7.57c2.31-2.5,4.3-5.27,6.31-8.03
	c2.32-3.18,4.81-6.22,7.87-8.74c0.4-0.33,0.87-0.56,1.35-0.77c-0.3,0.79-0.91,1.33-1.49,1.85c-3.11,2.81-5.73,6.04-8.17,9.43
	c-2.37,3.29-4.98,6.38-7.78,9.32c-1.33,1.4-2.5,2.96-3.74,4.44c-0.32,0.38-0.63,0.78-0.98,1.13c-0.23,0.23-0.53,0.38-0.9,0.63
	c0.18,0.57,0.42,1.25,0.62,1.95c1.54,5.3,3.1,10.6,4.59,15.92c0.88,3.14,1.85,6.26,3.18,9.24c1.42,3.18,2.09,6.54,2.45,9.97
	c0.17,1.66,0.23,3.34,0.38,5.01c0.17,1.9-0.83,3.15-2.21,4.24c-0.81,0.64-1.72,0.86-2.72,0.75c-1.28-0.15-2.57-0.32-3.85-0.43
	c-1.14-0.1-2.29-0.18-3.43-0.2c-3.7-0.08-7.41-0.08-11.11-0.22c-2.14-0.08-4.27-0.36-6.41-0.57c-4.56-0.46-9.14-0.73-13.72-0.89
	c-0.35-0.01-0.69,0-1.12,0c0.05,0.47,0.13,0.83,0.14,1.2c0.07,2.76,0.3,5.53,0.16,8.29c-0.29,5.71-2.65,10.58-6.48,14.79
	c-2.72,3-5.89,5.45-9.25,7.68c-1.12,0.75-2.26,1.48-3.42,2.15c-0.53,0.3-1.13,0.49-1.72,0.67c-0.28,0.09-0.6,0.05-0.9,0.07
	C76.08,190.03,76.08,189.99,76.08,189.96z M108.9,88.48c-0.57,0.98-1.18,1.95-1.71,2.95c-2.16,4.07-4.47,8.06-6.87,12
	c-2.05,3.36-3.96,6.8-6.01,10.15c-3.5,5.71-7.05,11.38-10.6,17.06c-0.92,1.47-2,2.85-2.79,4.38c-2.07,3.99-4.19,7.94-6.67,11.7
	c-0.48,0.73-0.89,1.54-1.15,2.36c-0.36,1.12-0.32,1.99,1,2.51c0.19,0.07,0.35,0.22,0.53,0.3c3.16,1.44,6.47,2.32,9.94,2.45
	c3.02,0.11,6.05,0.11,9.08,0.13c0.61,0,1.21-0.15,1.82-0.18c0.43-0.02,0.87,0.02,1.3,0.05c0.32,0.03,0.63,0.12,0.95,0.13
	c2.38,0.1,4.76,0.16,7.13,0.29c2.11,0.12,4.22,0.3,6.33,0.47c2.99,0.25,5.97,0.59,8.96,0.75c2.76,0.15,5.52,0.09,8.28,0.15
	c1.82,0.04,3.64,0.1,5.46,0.22c1.14,0.07,2.27,0.29,3.41,0.39c0.46,0.04,0.97,0.04,1.39-0.11c1.58-0.55,2.85-2.32,2.78-4
	c-0.07-1.91-0.21-3.82-0.42-5.71c-0.34-3.14-1.02-6.2-2.31-9.11c-0.5-1.13-0.97-2.27-1.38-3.43c-1.88-5.33-3.23-10.81-4.75-16.24
	c-1.48-5.28-3.16-10.46-5.66-15.35c-0.51-0.99-0.94-2.03-1.27-3.09c-0.76-2.45-1.77-4.81-3.07-7.01c-0.84-1.41-1.16-2.94-1.46-4.49
	c-0.03-0.17,0.03-0.36,0.04-0.55c0.67,0.87,0.54,1.98,1.11,2.97c-0.11-2.04-0.57-3.86-1.52-5.51c-1.18,0.71-2.32,1.43-3.49,2.08
	c-1.94,1.07-4,1.68-6.24,1.45C110.37,88.62,109.7,88.56,108.9,88.48z"/>
<!--<path d="M122.02,157.24c-0.07,0.2-0.19,0.36-0.15,0.46c0.63,1.72,0.56,3.54,0.63,5.31c0.14,3.58,0.16,7.17,0.26,10.76
	c0.08,2.92,0.37,5.81,1.19,8.63c0.8,2.73,1.92,5.3,3.9,7.42c1.28,1.37,2.68,2.55,4.55,3.02c0.68,0.17,1.38,0.33,2.08,0.33
	c1.7,0.01,3.42,0.07,5.1-0.14c2.3-0.28,4.55-0.9,6.62-2.01c0.04-0.02,0.1,0.01,0.23,0.03c-0.95,0.9-1.98,1.59-3.16,2.03
	c-3,1.11-6.11,1.37-9.28,1.09c-2.82-0.26-5.01-1.65-6.86-3.73c-2.04-2.3-3.24-5.01-4.06-7.93c-0.96-3.43-1.13-6.95-1.2-10.49
	c-0.07-3.7-0.12-7.41-0.21-11.11c-0.03-0.99-0.18-1.98-0.3-2.97C121.3,157.45,121.32,157.4,122.02,157.24z"/>-->
<path class="st0" d="M108.9,88.48c0.8,0.08,1.47,0.14,2.14,0.2c2.25,0.22,4.31-0.38,6.24-1.45c1.17-0.65,2.31-1.37,3.49-2.08
	c0.95,1.64,1.41,3.47,1.52,5.51c-0.57-0.99-0.45-2.1-1.11-2.97c-0.02,0.18-0.08,0.37-0.04,0.55c0.3,1.56,0.62,3.08,1.46,4.49
	c1.3,2.2,2.31,4.55,3.07,7.01c0.33,1.06,0.77,2.1,1.27,3.09c2.5,4.89,4.18,10.07,5.66,15.35c1.52,5.43,2.87,10.91,4.75,16.24
	c0.41,1.16,0.88,2.31,1.38,3.43c1.29,2.91,1.97,5.97,2.31,9.11c0.21,1.9,0.34,3.81,0.42,5.71c0.06,1.67-1.2,3.44-2.78,4
	c-0.43,0.15-0.93,0.15-1.39,0.11c-1.14-0.1-2.27-0.32-3.41-0.39c-1.82-0.12-3.64-0.18-5.46-0.22c-2.76-0.06-5.53,0-8.28-0.15
	c-2.99-0.16-5.97-0.51-8.96-0.75c-2.11-0.17-4.22-0.35-6.33-0.47c-2.37-0.13-4.75-0.19-7.13-0.29c-0.32-0.01-0.63-0.1-0.95-0.13
	c-0.43-0.04-0.87-0.08-1.3-0.05c-0.61,0.03-1.21,0.19-1.82,0.18c-3.03-0.02-6.05-0.03-9.08-0.13c-3.47-0.12-6.78-1.01-9.94-2.45
	c-0.19-0.08-0.35-0.23-0.53-0.3c-1.33-0.52-1.36-1.4-1-2.51c0.27-0.83,0.67-1.64,1.15-2.36c2.48-3.76,4.6-7.71,6.67-11.7
	c0.79-1.53,1.87-2.91,2.79-4.38c3.54-5.68,7.1-11.35,10.6-17.06c2.05-3.35,3.96-6.79,6.01-10.15c2.4-3.94,4.71-7.93,6.87-12
	C107.72,90.43,108.33,89.46,108.9,88.48z"/>
</g>
</svg>
