<?xml version="1.0" encoding="utf-8"?>
<!-- Generator: Adobe Illustrator 25.4.1, SVG Export Plug-In . SVG Version: 6.00 Build 0)  -->
<svg version="1.1" id="Layer_1" xmlns="http://www.w3.org/2000/svg" xmlns:xlink="http://www.w3.org/1999/xlink" x="0px" y="0px"
	 viewBox="0 0 216 216" style="enable-background:new 0 0 216 216;" xml:space="preserve">
<g>
	<path class="st0" d="M144.49,129.27l-29.37-50.31c-4.97-8.42-9.93-22.02-9.93-31.31c0-11.01,5.61-25.05,23.75-25.05
		c12.09,0,26.13,7.56,26.13,32.17v81.62c0,38.22-6.05,57-39.3,57c-33.04,0-54.85-22.89-54.85-45.34c0-28.5,17.27-53.98,32.39-53.98
		c13.6,0,20.73,13.17,11.01,23.32l-28.72,30.01c-8.21,8.85-2.16,17.49,6.26,15.76l57.65-11.44
		C148.38,150,151.4,141.14,144.49,129.27z"/>
</g>
</svg>
