<?xml version="1.0" encoding="utf-8"?>
<!-- Generator: Adobe Illustrator 25.4.1, SVG Export Plug-In . SVG Version: 6.00 Build 0)  -->
<svg version="1.1" id="Layer_1" xmlns="http://www.w3.org/2000/svg" xmlns:xlink="http://www.w3.org/1999/xlink" x="0px" y="0px"
	 viewBox="0 0 216 216" style="enable-background:new 0 0 216 216;" xml:space="preserve">
<g>
	<path class="st0" d="M45.69,95.99c-3.55,0-5.39-2.14-5.53-6.43l-0.58-17.55H35.2v-2.06c2.21-0.28,3.85-0.95,4.9-2
		c1.05-1.05,1.86-3.13,2.42-6.22h2.42l-0.21,7.38h6.59v2.9h-6.69l-0.47,16.28c-0.07,2.39,0.46,3.87,1.61,4.43
		c1.14,0.56,2.77,0.25,4.87-0.95l0.84,1.48C49.76,95.08,47.83,95.99,45.69,95.99z"/>
	<path class="st0" d="M53.54,95.46v-1.58l1.9-0.69c1.26-0.49,2.07-1.05,2.42-1.69c0.35-0.63,0.51-1.84,0.47-3.64l-0.37-11.65
		c-0.07-1.93-0.95-2.9-2.63-2.9h-1.26l-0.21-2.11l8.01-2.63v6.17c0.42-1.65,1.33-3.09,2.71-4.32c1.39-1.23,2.87-1.84,4.45-1.84
		c1.79,0,3.21,0.49,4.27,1.48l-0.84,7.69l-1.74,0.21c-0.35-1.33-0.91-2.32-1.69-2.95c-0.77-0.63-1.58-0.95-2.42-0.95
		c-1.23,0-2.23,0.42-3,1.26c-0.77,0.84-1.18,2.04-1.21,3.58l-0.37,8.96c-0.07,1.86,0.11,3.13,0.55,3.79
		c0.44,0.67,1.47,1.23,3.08,1.69l1.95,0.53v1.58H53.54z"/>
	<path class="st0" d="M86.59,95.99c-2.21,0-4.01-0.7-5.4-2.11c-1.39-1.41-2.13-3.35-2.24-5.85l-0.47-11.8
		c-0.11-1.93-0.98-2.9-2.63-2.9h-1l-0.21-2.11l8.8-2.63l-0.74,15.76c-0.21,4.43,1.63,6.64,5.53,6.64c3.9,0,5.74-2.42,5.53-7.27
		l-0.32-7.48c-0.11-1.93-1.02-2.9-2.74-2.9h-1.42l-0.21-2.11l9.22-2.63L97.55,87.4c-0.07,1.72,0.13,2.9,0.61,3.53
		c0.47,0.63,1.38,1.12,2.71,1.48l1.32,0.37v1.63l-8.17,1.32v-5.59c-0.32,1.58-1.17,2.95-2.56,4.11
		C90.07,95.41,88.45,95.99,86.59,95.99z"/>
	<path class="st0" d="M115.62,95.99c-3.13,0-5.67-1.29-7.62-3.87c-1.95-2.58-2.92-5.75-2.92-9.51c0-3.62,1.04-6.86,3.11-9.72
		c2.07-2.86,4.78-4.3,8.12-4.3c2.74,0,5,1.05,6.77,3.16c1.77,2.11,2.66,5.04,2.66,8.8h-18.29v0.42c0,3.16,0.92,5.55,2.77,7.17
		c1.84,1.62,4.07,2.42,6.67,2.42c1.9,0,3.42-0.37,4.56-1.11c1.14-0.74,2.05-1.95,2.71-3.64l1.95,0.69
		c-0.49,2.71-1.66,4.96-3.51,6.77C120.76,95.09,118.43,95.99,115.62,95.99z M107.88,78.18h12.38c-0.28-1.51-0.97-2.73-2.08-3.66
		c-1.11-0.93-2.49-1.4-4.14-1.4c-1.58,0-2.9,0.47-3.95,1.4C109.04,75.44,108.3,76.67,107.88,78.18z"/>
	<path class="st0" d="M153.05,95.79c-2.11,0-3.7-0.91-4.78-2.73l-0.86,2.4h-0.99l-0.72-18.91c-0.02-1.21-0.57-1.81-1.65-1.81h-0.99
		l-0.13-1.32l5.9-2.01l-0.46,12.29c0.31-1.23,0.98-2.38,2.01-3.44c1.03-1.06,2.22-1.6,3.56-1.6c1.52,0,2.83,0.68,3.95,2.04
		c1.12,1.36,1.68,3.26,1.68,5.7c0,2.53-0.58,4.72-1.75,6.59C156.66,94.86,155.07,95.79,153.05,95.79z M153.78,92.63
		c1.21,0,2.21-0.41,3-1.24c0.79-0.82,1.19-1.82,1.19-2.98c0-1.65-0.51-3.08-1.52-4.3c-1.01-1.22-2.28-1.83-3.82-1.83
		c-1.19,0-2.16,0.46-2.93,1.38c-0.77,0.92-1.15,2.04-1.15,3.36c0,1.56,0.52,2.88,1.55,3.97C151.12,92.09,152.35,92.63,153.78,92.63z
		"/>
	<path class="st0" d="M168.27,102.71l-2.96-1.84l4.81-6.52l-5.53-11.66c-0.53-1.1-1.33-1.8-2.4-2.11l-0.92-0.26v-1.32h8.96v1.32
		l-1.32,0.3c-0.53,0.11-0.83,0.37-0.92,0.79c-0.09,0.42,0.02,1.07,0.33,1.94l3,8.86l2.67-9.09c0.26-0.97,0.32-1.62,0.17-1.98
		c-0.15-0.35-0.55-0.58-1.19-0.69l-0.86-0.13v-1.32h7.64v1.32l-0.99,0.26c-0.53,0.15-0.98,0.43-1.37,0.82
		c-0.38,0.4-0.76,1.07-1.14,2.01L168.27,102.71z"/>
	<path class="st0" d="M36.25,154.27c-2.88,0-5.27-0.58-7.17-1.74c-1.9-1.16-2.85-2.62-2.85-4.37c0-0.98,0.34-1.88,1.03-2.69
		c0.69-0.81,1.61-1.41,2.77-1.79c-2.07-0.95-3.11-2.6-3.11-4.95c0-1.27,0.4-2.48,1.21-3.64c0.81-1.16,1.98-2.09,3.53-2.79
		c-1.79-1.72-2.69-4.06-2.69-7.01c0-2.85,0.83-5.14,2.48-6.88c1.65-1.74,3.74-2.61,6.27-2.61c1.69,0,3.25,0.44,4.69,1.32L44,112
		h6.64v1.05l-6.69,5.27c1.72,1.79,2.58,4.11,2.58,6.96c0,2.81-0.83,5.08-2.5,6.8c-1.67,1.72-3.77,2.58-6.3,2.58
		c-1.69,0-3.23-0.42-4.64-1.27c-1.58,0.77-2.37,1.81-2.37,3.11c0,1.69,1.07,2.53,3.21,2.53c1.16,0,2.56-0.06,4.22-0.18
		c1.65-0.12,3.13-0.18,4.43-0.18c2.21,0,3.93,0.53,5.14,1.58c1.21,1.05,1.82,2.48,1.82,4.27c0,2.85-1.19,5.18-3.58,7.01
		C43.56,153.35,40.32,154.27,36.25,154.27z M37.2,152c2.28,0,4.29-0.45,6.01-1.34c1.72-0.9,2.58-2.22,2.58-3.98
		c0-1.69-1.34-2.53-4.01-2.53c-0.7,0-2.04,0.04-4.01,0.13c-1.97,0.09-3.43,0.11-4.37,0.08c-0.14,0-0.33-0.01-0.58-0.03
		c-0.25-0.02-0.42-0.03-0.53-0.03c-0.95,0.7-1.42,1.62-1.42,2.74c0,1.65,0.64,2.89,1.92,3.72C34.08,151.59,35.55,152,37.2,152z
		 M39.67,129.76c3.2,0,4.8-1.14,4.8-3.43c0-1.76-0.86-3.15-2.58-4.19c-1.72-1.04-3.67-1.55-5.85-1.55c-3.34,0-5.01,1.25-5.01,3.74
		c0,1.72,0.87,3.06,2.61,4.01C35.38,129.29,37.39,129.76,39.67,129.76z"/>
	<path class="st0" d="M72.09,139.35c-2.04,2.56-4.67,3.85-7.91,3.85c-3.23,0-5.86-1.28-7.88-3.85c-2.02-2.56-3.03-5.85-3.03-9.86
		c0-4,1.01-7.29,3.03-9.85c2.02-2.56,4.65-3.85,7.88-3.85c3.23,0,5.87,1.28,7.91,3.85c2.04,2.56,3.06,5.85,3.06,9.85
		C75.14,133.5,74.12,136.79,72.09,139.35z M66.08,137.88c2.11,0,3.78-0.68,5.01-2.03c1.23-1.35,1.84-3.06,1.84-5.14
		c0-2.64-1.05-4.89-3.16-6.77c-2.11-1.88-4.52-2.82-7.22-2.82c-2.11,0-3.77,0.68-4.98,2.03c-1.21,1.35-1.82,3.07-1.82,5.14
		c0,2.63,1.05,4.89,3.16,6.77C61.02,136.94,63.41,137.88,66.08,137.88z"/>
	<path class="st0" d="M78.57,142.67v-1.58l1.9-0.69c1.26-0.49,2.07-1.05,2.42-1.69c0.35-0.63,0.51-1.84,0.47-3.64l-0.37-11.65
		c-0.07-1.93-0.95-2.9-2.63-2.9h-1.26l-0.21-2.11l8.01-2.63v6.17c0.42-1.65,1.33-3.09,2.71-4.32c1.39-1.23,2.87-1.84,4.45-1.84
		c1.79,0,3.21,0.49,4.27,1.48l-0.84,7.69l-1.74,0.21c-0.35-1.33-0.91-2.32-1.69-2.95c-0.77-0.63-1.58-0.95-2.42-0.95
		c-1.23,0-2.23,0.42-3,1.26c-0.77,0.84-1.18,2.04-1.21,3.58l-0.37,8.96c-0.07,1.86,0.11,3.13,0.55,3.79
		c0.44,0.67,1.47,1.23,3.08,1.69l1.95,0.53v1.58H78.57z"/>
	<path class="st0" d="M99.96,142.67v-1.58l1.9-0.74c1.27-0.49,2.07-1.05,2.42-1.69c0.35-0.63,0.51-1.83,0.47-3.58l-0.37-11.75
		c-0.04-0.95-0.3-1.65-0.79-2.11c-0.49-0.46-1.11-0.69-1.84-0.69h-1.21l-0.26-2.11l8.54-2.63v5.9c0.6-1.65,1.55-3.05,2.85-4.19
		c1.3-1.14,2.97-1.71,5.01-1.71c3.69,0,5.94,2.04,6.75,6.11c1.05-4.07,3.53-6.11,7.43-6.11c2.77,0,4.82,0.83,6.14,2.48
		c1.32,1.65,1.92,3.85,1.82,6.59l-0.37,10.22c-0.04,1.76,0.12,2.95,0.47,3.58c0.35,0.63,1.16,1.19,2.42,1.69l1.9,0.74v1.58h-13.7
		v-1.58l1.9-0.74c1.27-0.49,2.08-1.06,2.45-1.71c0.37-0.65,0.52-1.84,0.45-3.56l-0.32-8.33c-0.07-1.83-0.54-3.26-1.42-4.3
		c-0.88-1.04-2.09-1.55-3.64-1.55c-3.16,0-4.83,1.88-5.01,5.64l-0.32,8.54c-0.07,1.76,0.08,2.95,0.45,3.58s1.19,1.19,2.45,1.69
		l1.9,0.74v1.58h-13.7v-1.58l1.9-0.74c1.27-0.49,2.08-1.05,2.45-1.69s0.52-1.83,0.45-3.58l-0.32-8.27c-0.07-1.9-0.56-3.35-1.48-4.37
		c-0.91-1.02-2.14-1.53-3.69-1.53c-3.06,0-4.67,1.92-4.85,5.74l-0.32,8.43c-0.07,1.76,0.08,2.95,0.45,3.58s1.19,1.19,2.45,1.69
		l1.9,0.74v1.58H99.96z"/>
	<path class="st0" d="M145.13,142.67v-1.58l1.9-0.69c1.27-0.49,2.08-1.05,2.45-1.69s0.52-1.84,0.45-3.64l-0.42-11.33
		c-0.04-1.93-0.91-2.9-2.63-2.9h-0.95l-0.32-2.11l8.85-2.95l-0.84,19.29c-0.07,1.79,0.08,3,0.45,3.64s1.19,1.19,2.45,1.69l1.9,0.69
		v1.58H145.13z M154.01,110.08c-0.72,0.72-1.61,1.08-2.66,1.08s-1.94-0.36-2.66-1.08c-0.72-0.72-1.08-1.61-1.08-2.66
		s0.36-1.94,1.08-2.66c0.72-0.72,1.61-1.08,2.66-1.08s1.94,0.36,2.66,1.08c0.72,0.72,1.08,1.61,1.08,2.66
		S154.73,109.36,154.01,110.08z"/>
	<path class="st0" d="M160.25,142.67v-1.58l1.9-0.63c1.23-0.42,2.05-1.01,2.45-1.77c0.4-0.75,0.55-2.05,0.45-3.87l-0.63-11.38
		c-0.11-1.93-0.98-2.9-2.64-2.9h-1.21l-0.26-2.11l8.43-2.63v6.75c0.53-1.79,1.54-3.36,3.03-4.72c1.49-1.35,3.21-2.03,5.14-2.03
		c5.83,0,8.62,3.57,8.38,10.7l-0.32,8.33c-0.07,1.83,0.09,3.12,0.47,3.87c0.39,0.76,1.19,1.34,2.42,1.77l1.9,0.63v1.58h-13.7v-1.58
		l1.9-0.63c1.23-0.42,2.04-1.01,2.42-1.77c0.39-0.75,0.54-2.05,0.47-3.87l-0.26-7.64c-0.07-2.07-0.62-3.64-1.66-4.69
		c-1.04-1.05-2.45-1.58-4.24-1.58c-1.58,0-2.85,0.58-3.79,1.74c-0.95,1.16-1.46,2.6-1.53,4.32l-0.21,7.85
		c-0.07,1.86,0.09,3.16,0.47,3.9c0.39,0.74,1.19,1.32,2.42,1.74l1.9,0.63v1.58H160.25z"/>
</g>
</svg>
